<svg width="214" height="23" viewBox="0 0 214 23" fill="none" xmlns="http://www.w3.org/2000/svg">
<path d="M5.69824 22.1377H0V0.72168H12.6562V5.36523H5.69824V9.45215H12.1143V14.0957H5.69824V22.1377Z" fill="black"/>
<path d="M34.3799 0.72168V13.6123C34.3799 15.4092 34.0381 16.9717 33.3545 18.2998C32.6709 19.6182 31.6455 20.6387 30.2783 21.3613C28.9111 22.0742 27.1973 22.4307 25.1367 22.4307C22.1875 22.4307 19.9365 21.6738 18.3838 20.1602C16.8311 18.6465 16.0547 16.5078 16.0547 13.7441V0.72168H21.8701V13.29C21.8701 14.8037 22.1533 15.9023 22.7197 16.5859C23.2861 17.2695 24.1211 17.6113 25.2246 17.6113C26.0156 17.6113 26.6602 17.4648 27.1582 17.1719C27.6562 16.8691 28.0176 16.3955 28.2422 15.751C28.4766 15.1064 28.5938 14.2764 28.5938 13.2607V0.72168H34.3799Z" fill="black"/>
<path d="M59.2676 22.1377H51.6797L43.8574 7.0498H43.7256C43.7744 7.50879 43.8184 8.06055 43.8574 8.70508C43.8965 9.34961 43.9307 10.0088 43.96 10.6826C43.9893 11.3467 44.0039 11.9473 44.0039 12.4844V22.1377H38.877V0.72168H46.4355L54.2285 15.6045H54.3164C54.2871 15.1357 54.2578 14.5938 54.2285 13.9785C54.1992 13.3535 54.1699 12.7236 54.1406 12.0889C54.1211 11.4541 54.1113 10.8926 54.1113 10.4043V0.72168H59.2676V22.1377Z" fill="black"/>
<path d="M82.0752 10.9756C82.0752 13.4658 81.6113 15.5361 80.6836 17.1865C79.7559 18.8369 78.4473 20.0771 76.7578 20.9072C75.0781 21.7275 73.1006 22.1377 70.8252 22.1377H63.8965V0.72168H71.3086C73.6133 0.72168 75.5664 1.11719 77.168 1.9082C78.7695 2.69922 79.9854 3.85645 80.8154 5.37988C81.6553 6.90332 82.0752 8.76855 82.0752 10.9756ZM76.0693 11.1807C76.0693 9.88184 75.8936 8.80762 75.542 7.95801C75.2002 7.09863 74.6826 6.45898 73.9893 6.03906C73.2959 5.60938 72.4219 5.39453 71.3672 5.39453H69.6826V17.3916H70.9717C72.7295 17.3916 74.0186 16.8838 74.8389 15.8682C75.6592 14.8428 76.0693 13.2803 76.0693 11.1807Z" fill="black"/>
<path d="M99.0674 22.1377L98.0127 18.124H91.0547L89.9707 22.1377H83.6133L90.6006 0.633789H98.3203L105.396 22.1377H99.0674ZM96.8115 13.3779L95.8887 9.8623C95.791 9.48145 95.6494 8.93945 95.4639 8.23633C95.2783 7.52344 95.0928 6.79102 94.9072 6.03906C94.7314 5.27734 94.5947 4.65234 94.4971 4.16406C94.4092 4.65234 94.2822 5.25781 94.1162 5.98047C93.96 6.69336 93.7939 7.40137 93.6182 8.10449C93.4521 8.80762 93.3057 9.39355 93.1787 9.8623L92.2559 13.3779H96.8115Z" fill="black"/>
<path d="M117.173 22.1377H111.387V5.45312H106.157V0.72168H122.388V5.45312H117.173V22.1377Z" fill="black"/>
<path d="M125.449 22.1377V0.72168H131.265V22.1377H125.449Z" fill="black"/>
<path d="M155.947 11.4004C155.947 13.0508 155.747 14.5547 155.347 15.9121C154.956 17.2598 154.341 18.4219 153.501 19.3984C152.661 20.375 151.582 21.127 150.264 21.6543C148.945 22.1719 147.368 22.4307 145.532 22.4307C143.735 22.4307 142.178 22.1719 140.859 21.6543C139.551 21.127 138.472 20.3799 137.622 19.4131C136.772 18.4365 136.143 17.2695 135.732 15.9121C135.322 14.5547 135.117 13.041 135.117 11.3711C135.117 9.14453 135.483 7.21094 136.216 5.57031C136.958 3.91992 138.101 2.64551 139.644 1.74707C141.187 0.838867 143.159 0.384766 145.562 0.384766C148.003 0.384766 149.985 0.838867 151.509 1.74707C153.042 2.65527 154.165 3.93457 154.878 5.58496C155.591 7.23535 155.947 9.17383 155.947 11.4004ZM141.211 11.4004C141.211 12.6895 141.357 13.7979 141.65 14.7256C141.943 15.6533 142.407 16.3662 143.042 16.8643C143.677 17.3623 144.507 17.6113 145.532 17.6113C146.597 17.6113 147.441 17.3623 148.066 16.8643C148.701 16.3662 149.155 15.6533 149.429 14.7256C149.712 13.7979 149.854 12.6895 149.854 11.4004C149.854 9.4668 149.531 7.93848 148.887 6.81543C148.242 5.69238 147.134 5.13086 145.562 5.13086C144.517 5.13086 143.672 5.38477 143.027 5.89258C142.393 6.40039 141.929 7.12305 141.636 8.06055C141.353 8.99805 141.211 10.1113 141.211 11.4004Z" fill="black"/>
<path d="M180.205 22.1377H172.617L164.795 7.0498H164.663C164.712 7.50879 164.756 8.06055 164.795 8.70508C164.834 9.34961 164.868 10.0088 164.897 10.6826C164.927 11.3467 164.941 11.9473 164.941 12.4844V22.1377H159.814V0.72168H167.373L175.166 15.6045H175.254C175.225 15.1357 175.195 14.5938 175.166 13.9785C175.137 13.3535 175.107 12.7236 175.078 12.0889C175.059 11.4541 175.049 10.8926 175.049 10.4043V0.72168H180.205V22.1377Z" fill="black"/>
<path d="M198.838 15.6338C198.838 16.7959 198.545 17.8994 197.959 18.9443C197.373 19.9795 196.46 20.8193 195.22 21.4639C193.989 22.1084 192.397 22.4307 190.444 22.4307C189.468 22.4307 188.608 22.3867 187.866 22.2988C187.134 22.2109 186.45 22.0693 185.815 21.874C185.181 21.6689 184.521 21.4053 183.838 21.083V15.9268C185 16.5127 186.172 16.9619 187.354 17.2744C188.535 17.5771 189.604 17.7285 190.562 17.7285C191.138 17.7285 191.606 17.6602 191.968 17.5234C192.339 17.3867 192.612 17.2012 192.788 16.9668C192.964 16.7227 193.052 16.4443 193.052 16.1318C193.052 15.7607 192.92 15.4482 192.656 15.1943C192.402 14.9307 191.992 14.6572 191.426 14.374C190.859 14.0908 190.112 13.7393 189.185 13.3193C188.394 12.9482 187.676 12.5674 187.031 12.1768C186.396 11.7861 185.85 11.3418 185.391 10.8438C184.941 10.3359 184.595 9.74512 184.351 9.07129C184.106 8.39746 183.984 7.60156 183.984 6.68359C183.984 5.30664 184.321 4.1543 184.995 3.22656C185.679 2.28906 186.626 1.58594 187.837 1.11719C189.058 0.648438 190.464 0.414062 192.056 0.414062C193.452 0.414062 194.707 0.570312 195.82 0.882812C196.943 1.19531 197.949 1.55176 198.838 1.95215L197.065 6.41992C196.147 6 195.244 5.66797 194.355 5.42383C193.467 5.16992 192.642 5.04297 191.88 5.04297C191.382 5.04297 190.972 5.10645 190.649 5.2334C190.337 5.35059 190.103 5.51172 189.946 5.7168C189.8 5.92188 189.727 6.15625 189.727 6.41992C189.727 6.75195 189.854 7.0498 190.107 7.31348C190.371 7.57715 190.806 7.86523 191.411 8.17773C192.026 8.48047 192.861 8.87598 193.916 9.36426C194.961 9.83301 195.85 10.3408 196.582 10.8877C197.314 11.4248 197.871 12.0742 198.252 12.8359C198.643 13.5879 198.838 14.5205 198.838 15.6338Z" fill="black"/>
<path d="M206.031 7.99805V2.0166H207.938C208.909 2.0166 209.602 2.17839 210.017 2.50195C210.431 2.82096 210.639 3.27441 210.639 3.8623C210.639 4.34082 210.545 4.7054 210.358 4.95605C210.172 5.20215 209.944 5.389 209.675 5.5166L211.001 7.99805H209.101L208.103 5.81055H207.863V7.99805H206.031ZM207.863 4.60742H207.938C208.203 4.60742 208.41 4.55957 208.561 4.46387C208.715 4.36361 208.793 4.18815 208.793 3.9375C208.793 3.69141 208.715 3.5319 208.561 3.45898C208.41 3.38607 208.207 3.34961 207.952 3.34961H207.863V4.60742ZM208.26 10.2744C207.517 10.2744 206.831 10.1491 206.202 9.89844C205.578 9.64323 205.033 9.28548 204.568 8.8252C204.108 8.36491 203.75 7.82259 203.495 7.19824C203.244 6.56934 203.119 5.88346 203.119 5.14062C203.119 4.39323 203.244 3.70736 203.495 3.08301C203.75 2.45866 204.108 1.91634 204.568 1.45605C205.033 0.991211 205.578 0.633464 206.202 0.382812C206.831 0.127604 207.517 0 208.26 0C209.007 0 209.693 0.127604 210.317 0.382812C210.942 0.633464 211.484 0.991211 211.944 1.45605C212.405 1.91634 212.76 2.45866 213.011 3.08301C213.266 3.70736 213.394 4.39323 213.394 5.14062C213.394 5.88346 213.266 6.56934 213.011 7.19824C212.76 7.82259 212.405 8.36491 211.944 8.8252C211.484 9.28548 210.942 9.64323 210.317 9.89844C209.693 10.1491 209.007 10.2744 208.26 10.2744ZM208.26 9.16016C208.829 9.16016 209.351 9.06217 209.825 8.86621C210.299 8.67025 210.707 8.39453 211.049 8.03906C211.395 7.67904 211.662 7.25521 211.849 6.76758C212.04 6.27539 212.136 5.73307 212.136 5.14062C212.136 4.54818 212.04 4.00814 211.849 3.52051C211.662 3.02832 211.395 2.60449 211.049 2.24902C210.707 1.889 210.299 1.611 209.825 1.41504C209.351 1.21908 208.829 1.12109 208.26 1.12109C207.681 1.12109 207.152 1.21908 206.674 1.41504C206.195 1.611 205.783 1.889 205.437 2.24902C205.09 2.60449 204.821 3.02832 204.63 3.52051C204.443 4.00814 204.35 4.54818 204.35 5.14062C204.35 5.73307 204.443 6.27539 204.63 6.76758C204.821 7.25521 205.09 7.67904 205.437 8.03906C205.783 8.39453 206.195 8.67025 206.674 8.86621C207.152 9.06217 207.681 9.16016 208.26 9.16016Z" fill="black"/>
</svg>
