<svg width="3840" height="2400" viewBox="0 0 3840 2400" fill="none" xmlns="http://www.w3.org/2000/svg">
<rect width="3840" height="2400" fill="white"/>
<g clip-path="url(#clip0_1473_10228)">
<path d="M3840 0H2.19922V2400H3840V0Z" fill="#8ED8F8"/>
<path d="M3109.78 1945.76C3277.92 1880 3400.54 2158.68 3539.16 2006.84C3659.28 1875.28 3674.29 1809.51 3840 1786V2400H2227C2314.64 2300.88 2443.32 2263.02 2690.4 2232.77C2962.63 2199.46 2938.55 2012.72 3109.76 1945.73L3109.78 1945.76Z" fill="#009CDE"/>
<path d="M72.3496 1940.7C48.5443 1947.42 25.0589 1955.33 2 1964.36V2400H1387C1195.76 2031.5 662.711 1774.28 72.3496 1940.7Z" fill="#A273AD"/>
<path d="M1 1232C968 -99 1643.31 999.553 2500.42 480.333C2714.5 350.65 2728.5 189 2653.43 0H1V1232Z" fill="#E8927C"/>
<path d="M3218.87 345.891C3267.31 526.43 3284.8 713.367 3464 878.109C3547.9 955.242 3679.58 1026.7 3838.97 1078.12V0H3057.84C3140.73 111.68 3187.54 229.195 3218.84 345.891H3218.87Z" fill="#5CB8B2"/>
</g>
<defs>
<clipPath id="clip0_1473_10228">
<rect width="3839" height="2400" fill="white" transform="translate(1)"/>
</clipPath>
</defs>
</svg>
