<svg width="140" height="138" viewBox="0 0 140 138" fill="none" xmlns="http://www.w3.org/2000/svg">
<g clip-path="url(#clip0_602_18341)">
<path d="M50.4904 134.701C32.4631 128.944 17.9269 117.003 9.56031 101.076C0.822539 84.4376 -1.13869 65.2213 4.18824 48.3459C9.33961 32.0204 21.5083 18.5705 39.3701 9.44417C56.4544 0.711333 75.0334 -1.16539 91.6914 4.152C109.021 9.68633 123.839 22.1474 132.346 38.3417C140.747 54.3343 142.292 72.9149 136.694 90.653C131.242 107.937 119.239 122.053 102.907 130.397C86.5651 138.747 67.9509 140.275 50.4954 134.701H50.4904Z" fill="#0075A7"/>
<path d="M132.471 68.2332C132.471 86.9601 125.103 103.654 113.2 115.923C101.297 128.198 85.1055 135.805 66.9428 135.805C48.7801 135.805 32.0368 128.768 20.134 116.493C8.23618 104.224 0 86.9601 0 68.2332C0 49.5062 9.24439 33.2816 21.1472 21.0123C33.0501 8.73788 48.7851 0 66.9478 0C85.1105 0 101.743 7.80961 113.646 20.084C125.549 32.3584 132.476 49.5062 132.476 68.2332H132.471Z" fill="url(#paint0_linear_602_18341)"/>
<path d="M64.8663 41.853C59.0127 38.7807 53.7409 36.9645 48.3287 40.5918C47.5512 41.1114 46.8841 42.1911 46.3073 43.6743C42.6757 53.0478 42.8312 78.7166 42.7359 84.0441C42.445 100.269 50.2097 104.153 65.3829 96.9844C79.3674 90.3755 87.2574 85.1792 91.6915 81.0524C96.6172 76.4716 97.2793 73.2126 97.2793 70.8263C97.2793 63.7633 72.3902 45.8033 64.8713 41.853H64.8663Z" fill="white"/>
</g>
<defs>
<linearGradient id="paint0_linear_602_18341" x1="34.8708" y1="30.5624" x2="113.203" y2="121.834" gradientUnits="userSpaceOnUse">
<stop stop-color="#7ECDEE"/>
<stop offset="1" stop-color="#009CDE"/>
</linearGradient>
<clipPath id="clip0_602_18341">
<rect width="140" height="138" fill="white"/>
</clipPath>
</defs>
</svg>
