<svg width="72" height="70" viewBox="0 0 72 70" fill="none" xmlns="http://www.w3.org/2000/svg">
<path d="M42.2107 8.53689C45.4135 12.6349 49.5381 15.4294 52.8628 20.6715C58.9098 22.3362 62.005 20.0694 66.9366 21.8651C69.8345 22.956 73.3278 31.1024 71.4879 33.7234C68.2995 38.1827 64.6698 43.0351 60.6242 47.9265C60.6349 54.0752 60.5094 59.9938 60.2727 65.4377C60.14 68.6998 56.306 70.8001 53.1892 69.7092C47.917 67.9064 42.4582 66.1638 36.7448 64.1803C30.8879 66.1638 25.3072 67.9064 19.9058 69.7092C16.7137 70.8001 9.75935 65.4696 9.85619 62.2075C10.0068 56.7636 13.5683 54.0717 14.013 47.9229C10.3117 43.028 7.02638 38.1791 4.15353 33.7199C2.49654 31.0989 3.58685 27.008 6.56012 25.917C11.6208 24.1178 17.5386 22.3291 23.704 20.6644C27.4017 15.4224 31.1856 10.5097 34.6789 6.4082C36.7519 4.04575 40.3026 6.16735 42.2107 8.52981V8.53689Z" fill="url(#paint0_linear_1358_18723)"/>
<path d="M66.2553 21.2807C61.5568 19.5699 56.0766 17.8663 50.3452 16.2689C50.0583 16.1874 49.7713 16.1095 49.4844 16.028C46.1561 10.786 42.7201 5.87337 39.5173 1.77184C37.6128 -0.590614 33.3735 -0.590614 31.3005 1.77184C27.8072 5.86983 24.0233 10.786 20.3255 16.028C14.1602 17.6927 8.24596 19.4814 3.18171 21.2807C0.208436 22.3716 -0.881883 26.4625 0.775116 29.0835C3.64796 33.5428 6.93327 38.3952 10.6346 43.2866C10.3477 47.2606 10.1253 51.1354 9.96034 54.8545C9.87068 56.8875 9.79894 58.8745 9.74515 60.7978C9.64831 64.0599 13.3317 66.1638 16.5238 65.0693C21.9252 63.2665 27.5059 61.5239 33.3628 59.5404C39.0798 61.5239 44.5349 63.2665 49.8072 65.0693C52.9204 66.1602 56.758 64.0599 56.8907 60.7978C57.1274 55.3539 57.2529 49.4318 57.2422 43.2866C61.2878 38.3917 64.9175 33.5428 68.1059 29.0835C69.9494 26.4625 69.1496 22.3716 66.2517 21.2807H66.2553ZM13.8841 40.8922C10.7279 36.7163 7.56092 32.1508 4.19671 26.9336C4.04966 26.7034 3.98152 26.165 4.16443 25.6408C4.28638 25.2866 4.47288 25.0812 4.59482 25.0351C9.30758 23.3598 14.9744 21.6278 21.3943 19.8923L22.811 19.5097L23.6503 18.3196C27.2656 13.191 30.9849 8.36334 34.4029 4.35389C34.5714 4.16263 35.0126 4.00679 35.4717 4.00679C35.9307 4.00679 36.2571 4.15909 36.3468 4.26889C39.4312 8.21812 42.799 13.0351 46.0485 18.1567L46.8842 19.4708L48.8317 20.0091C45.5607 27.4578 40.4176 35.4448 32.3047 42.4436C26.4084 47.5298 20.1821 51.0256 14.0992 53.3987C14.2535 50.1508 14.4436 46.8604 14.6839 43.5699L14.7915 42.0823L13.8876 40.8887L13.8841 40.8922Z" fill="url(#paint1_linear_1358_18723)"/>
<path d="M47.3554 17.4441C43.9454 12.1557 40.4113 7.18192 37.1745 3.10413C37.0804 2.99076 36.7379 2.8335 36.2562 2.8335C35.7744 2.8335 35.3115 2.99441 35.1346 3.1919C31.5478 7.33187 27.6486 12.3167 23.851 17.6123L22.9703 18.8411L21.4836 19.2361C14.7466 21.0245 8.79992 22.8165 3.8544 24.5464C3.72643 24.5939 3.53072 24.8097 3.40276 25.1718C3.21081 25.713 3.28608 26.2689 3.43663 26.5066C6.96323 31.8937 10.2903 36.6079 13.6024 40.9197L14.5509 42.1522L14.438 43.6882C14.1895 47.0858 13.9901 50.4833 13.8245 53.837C20.2077 51.3867 26.7415 47.777 32.9291 42.5252C41.4426 35.2986 46.8397 27.0479 50.2722 19.3604L48.2285 18.8046L47.3516 17.4477L47.3554 17.4441Z" fill="url(#paint2_linear_1358_18723)"/>
<path d="M35.5649 4.13082C34.5894 3.7235 33.5098 4.39292 32.8391 5.06588C32.2473 5.66092 31.738 6.3693 31.2933 7.07769C30.8199 7.83211 30.4397 8.63259 30.1169 9.45785C30.0057 9.73766 30.0954 10.1591 30.2424 10.4106C30.3931 10.6656 30.6908 10.91 30.9884 10.9773C31.2072 11.0269 31.4081 11.0198 31.591 10.9773C32.3872 11.1651 33.2552 10.7471 33.9043 10.2937C35.0736 9.4791 35.9702 8.28548 36.3038 6.89705C36.5333 5.94427 36.6732 4.59481 35.5613 4.13082H35.5649ZM32.9503 9.47202C32.9503 9.47202 32.9503 9.46848 32.9503 9.46493C32.9467 9.5039 32.936 9.55348 32.9073 9.63495C32.9252 9.58536 32.936 9.52515 32.9503 9.47202Z" fill="#FFF7D7"/>
<path d="M29.8766 12.4188C29.6829 12.3054 29.4713 12.2523 29.2454 12.2488C29.2239 12.2488 29.2023 12.2488 29.1844 12.2488C29.0517 12.2559 28.9226 12.2736 28.7935 12.2984C28.7755 12.3019 28.754 12.309 28.7361 12.3125C28.6177 12.355 28.4958 12.4011 28.3846 12.4613C28.3667 12.4719 28.3487 12.479 28.3344 12.4932C28.2304 12.564 28.1264 12.6384 28.0331 12.7234C28.0188 12.7376 28.0044 12.7517 27.9937 12.7659C27.9901 12.7694 27.9865 12.773 27.9829 12.7801C27.9183 12.858 27.843 12.9536 27.782 13.0351C27.7749 13.0457 27.7677 13.0528 27.7605 13.0634C27.7498 13.0811 27.739 13.0988 27.7318 13.1165C27.6816 13.2228 27.6207 13.3432 27.5884 13.4637C27.5561 13.5805 27.5417 13.7789 27.531 13.8462C27.5166 13.9701 27.5418 14.1047 27.574 14.2181C27.6027 14.3243 27.6458 14.4306 27.7031 14.5262C27.7031 14.5262 27.7031 14.5298 27.7031 14.5333C27.7067 14.5404 27.8932 14.7777 27.9004 14.7848C27.9434 14.8237 27.9829 14.8485 28.0367 14.891C28.2053 15.0186 28.1264 14.976 28.3236 15.0575C28.3236 15.0575 28.4348 15.1106 28.485 15.1248C28.485 15.1248 28.4886 15.1248 28.4922 15.1248C28.5065 15.1248 28.5603 15.1354 28.6213 15.1425C28.6428 15.1531 28.6643 15.1602 28.6859 15.1709C28.9082 15.2311 29.1306 15.2311 29.3494 15.1709C29.4498 15.1284 29.5502 15.0894 29.6471 15.0469C29.8336 14.9371 29.9842 14.7883 30.0954 14.6041C30.1707 14.4412 30.2424 14.2748 30.3178 14.1118C30.4325 13.9206 30.4863 13.7116 30.4899 13.4884C30.4899 13.2653 30.4325 13.0563 30.3178 12.8651C30.2066 12.6809 30.0559 12.5321 29.8694 12.4223L29.8766 12.4188Z" fill="#FFF7D7"/>
<path d="M9.69852 24.9359C9.10314 25.1803 8.50777 25.4495 8.02 25.8674C7.53581 26.2854 7.1664 26.8733 7.15205 27.5109C7.13053 28.4459 7.90523 29.2818 8.81981 29.5298C9.73438 29.7777 10.7279 29.5298 11.5456 29.0622C12.3633 28.5947 13.0412 27.9217 13.7083 27.2558C14.5404 26.427 15.3725 25.5982 16.2046 24.7694C16.5847 24.3904 17.0797 23.721 16.4485 23.3279C15.9248 23.002 14.8022 23.4235 14.2499 23.5404C12.6933 23.8698 11.1654 24.3338 9.69493 24.9359H9.69852Z" fill="white"/>
<defs>
<linearGradient id="paint0_linear_1358_18723" x1="52.9999" y1="33.5" x2="8.99988" y2="62.5" gradientUnits="userSpaceOnUse">
<stop stop-color="#FE9B02"/>
<stop offset="0.296875" stop-color="#FD9F01"/>
<stop offset="0.59375" stop-color="#FDAC01"/>
<stop offset="0.947917" stop-color="#FDC200"/>
<stop offset="1" stop-color="#FDC600"/>
</linearGradient>
<linearGradient id="paint1_linear_1358_18723" x1="12" y1="19" x2="56.1282" y2="50.0287" gradientUnits="userSpaceOnUse">
<stop stop-color="#FFE01E"/>
<stop offset="1" stop-color="#FFC911"/>
</linearGradient>
<linearGradient id="paint2_linear_1358_18723" x1="0.00412488" y1="28.3353" x2="72.5045" y2="28.3353" gradientUnits="userSpaceOnUse">
<stop offset="0.1" stop-color="#FFF689"/>
<stop offset="1" stop-color="#FDC600"/>
</linearGradient>
</defs>
</svg>
